<?xml version="1.0" encoding="utf-8"?>

<!-- Uploaded to: SVG Repo, www.svgrepo.com, Generator: SVG Repo Mixer Tools -->
<svg fill="#000000" height="800px" width="800px" version="1.1" id="Icons" xmlns="http://www.w3.org/2000/svg" xmlns:xlink="http://www.w3.org/1999/xlink" 
	 viewBox="0 0 32 32" xml:space="preserve">
<g>
	<path d="M10,11c0.4-0.6,0.8-1.2,0.9-2H9.1C9.2,9.7,9.6,10.4,10,11z"/>
	<path d="M19,18V2c0-0.6-0.4-1-1-1H2C1.4,1,1,1.4,1,2v16c0,0.6,0.4,1,1,1h16C18.6,19,19,18.6,19,18z M14,13c0.6,0,1,0.4,1,1
		s-0.4,1-1,1c-1.5,0-2.9-0.5-4-1.3C8.9,14.5,7.5,15,6,15c-0.6,0-1-0.4-1-1s0.4-1,1-1c0.9,0,1.8-0.3,2.5-0.7C7.8,11.4,7.3,10.2,7.1,9
		H6C5.4,9,5,8.6,5,8s0.4-1,1-1h3V5c0-0.6,0.4-1,1-1s1,0.4,1,1v2h3c0.6,0,1,0.4,1,1s-0.4,1-1,1h-1.1c-0.2,1.2-0.7,2.4-1.4,3.3
		C12.2,12.7,13.1,13,14,13z"/>
	<polygon points="20.6,23 23.4,23 22,20.2 	"/>
	<path d="M30,13h-9v4.8l0.1-0.2c0.3-0.7,1.4-0.7,1.8,0l4,8c0.2,0.5,0,1.1-0.4,1.3C26.3,27,26.2,27,26,27c-0.4,0-0.7-0.2-0.9-0.6
		l-0.8-1.5C24.2,25,24.1,25,24,25h-4c-0.1,0-0.2,0-0.3-0.1l-0.8,1.5c-0.2,0.5-0.8,0.7-1.3,0.4c-0.5-0.2-0.7-0.8-0.4-1.3l2.5-5
		c-0.5,0.3-1,0.5-1.6,0.5h-5v9c0,0.6,0.4,1,1,1h16c0.6,0,1-0.4,1-1V14C31,13.4,30.6,13,30,13z"/>
</g>
</svg>